<?xml version="1.0" encoding="UTF-8"?>
<svg version="1.1" xmlns="http://www.w3.org/2000/svg" width="30" height="30">
<path d="M0 0 C3.64092677 3.21756319 6.2788541 5.81470836 7.0703125 10.7734375 C7.32633919 16.45722994 6.62376932 20.02438655 2.6875 24.375 C-1.66406863 28.31213353 -5.22714278 29.00490978 -10.91015625 28.765625 C-15.44555694 28.02816147 -18.17150783 25.6733704 -21.125 22.3125 C-23.64011366 18.2088935 -23.80103585 14.05606169 -23.3125 9.375 C-21.59521412 4.67505971 -19.44643334 2.16540501 -15.3125 -0.625 C-9.94299295 -2.41483568 -5.11514667 -2.50931724 0 0 Z " fill="#030303" transform="translate(23.3125,1.625)"/>
<path d="M0 0 C1.32 0 2.64 0 4 0 C4 0.66 4 1.32 4 2 C4.99 2 5.98 2 7 2 C7 2.66 7 3.32 7 4 C7.99 4 8.98 4 10 4 C10.33 3.34 10.66 2.68 11 2 C11.625 4.3125 11.625 4.3125 12 7 C11.01 8.485 11.01 8.485 10 10 C5.25 9.125 5.25 9.125 3 8 C3 7.34 3 6.68 3 6 C2.01 6 1.02 6 0 6 C-0.33 6.66 -0.66 7.32 -1 8 C-1.125 2.25 -1.125 2.25 0 0 Z " fill="#020202" transform="translate(10,10)"/>
<path d="M0 0 C1 2 1 2 1 6 C1.99 6 2.98 6 4 6 C4 6.66 4 7.32 4 8 C4.66 8 5.32 8 6 8 C6 9.98 6 11.96 6 14 C4.35 14.33 2.7 14.66 1 15 C0.67 14.34 0.34 13.68 0 13 C-0.66 13 -1.32 13 -2 13 C-2 12.34 -2 11.68 -2 11 C-1.34 11 -0.68 11 0 11 C-0.66 10.01 -1.32 9.02 -2 8 C-2.25 4.9375 -2.25 4.9375 -2 2 C-1.34 1.34 -0.68 0.68 0 0 Z " fill="#686868" transform="translate(9,10)"/>
<path d="M0 0 C0.33 0.99 0.66 1.98 1 3 C1.99 2.67 2.98 2.34 4 2 C4 2.66 4 3.32 4 4 C3.34 4 2.68 4 2 4 C2.99 5.485 2.99 5.485 4 7 C4.4375 9.875 4.4375 9.875 4 13 C1.625 15.875 1.625 15.875 -1 18 C-1.66 18 -2.32 18 -3 18 C-3 17.34 -3 16.68 -3 16 C-2.360625 15.773125 -1.72125 15.54625 -1.0625 15.3125 C1.27193661 14.14749104 1.27193661 14.14749104 1.75 11.375 C1.8325 10.59125 1.915 9.8075 2 9 C1.01 9 0.02 9 -1 9 C-1 8.01 -1 7.02 -1 6 C-1.99 5.67 -2.98 5.34 -4 5 C-3.34 5 -2.68 5 -2 5 C-2.33 3.68 -2.66 2.36 -3 1 C-2.34 1.33 -1.68 1.66 -1 2 C-0.67 1.34 -0.34 0.68 0 0 Z " fill="#9A9A9A" transform="translate(19,5)"/>
<path d="M0 0 C1.41377341 2.63904371 2.37240135 5.07120629 3 8 C2.67 7.34 2.34 6.68 2 6 C1.01 6 0.02 6 -1 6 C-1 5.34 -1 4.68 -1 4 C-2.32 3.67 -3.64 3.34 -5 3 C-3.35 2.67 -1.7 2.34 0 2 C0 1.34 0 0.68 0 0 Z " fill="#474747" transform="translate(15,6)"/>
<path d="M0 0 C0.33 0 0.66 0 1 0 C0.67 2.64 0.34 5.28 0 8 C-1.32 7.34 -2.64 6.68 -4 6 C-4 5.34 -4 4.68 -4 4 C-3.34 4 -2.68 4 -2 4 C-2 3.34 -2 2.68 -2 2 C-1.34 2 -0.68 2 0 2 C0 1.34 0 0.68 0 0 Z " fill="#C0C0C0" transform="translate(11,17)"/>
</svg>
